<?xml version="1.0" encoding="UTF-8"?>
<svg id="OBJECTS" xmlns="http://www.w3.org/2000/svg" viewBox="0 0 478.44 51.68">
  <defs>
    <style>
      .cls-1 {
        fill: #e8ca6f;
        stroke-width: 0px;
      }

      .cls-2 {
        fill: none;
        stroke: #e8ca6f;
        stroke-linecap: round;
        stroke-linejoin: round;
        stroke-width: 2px;
      }
    </style>
  </defs>
  <g>
    <path class="cls-1" d="M10.04,21.99c-1.12,7.37,2.13,14.86,7.69,19.7,6.39,5.56,15.7,6.95,23.89,6.25,9.21-.79,17.99-4.24,26.12-8.49s15.46-9.47,23.53-13.63c16.36-8.43,34.68-14.28,53.21-14.57,4.66-.07,9.27.27,13.79,1.45s8.79,2.81,12.89,4.77c7.09,3.38,12.83,8.9,19.64,12.73,5.13,2.88,10.6,5.34,16.26,6.97,4.94,1.42,11.37,2.72,16.05-.17,1-.62,1.83-1.42,2.53-2.35.58-.77-.72-1.52-1.3-.76-3.3,4.36-9.95,3.51-14.59,2.43-5.79-1.35-11.36-3.75-16.6-6.54-6.15-3.27-11.39-7.86-17.32-11.47-3.75-2.28-7.85-3.92-11.97-5.41s-8.06-2.49-12.28-2.91c-8.66-.86-17.64.18-26.13,1.93-8.72,1.8-17.22,4.6-25.4,8.1s-15.69,7.77-23.16,12.41-15.79,9.19-24.5,11.84c-8.75,2.66-18.1,3.3-26.84.26-7.17-2.5-12.7-9-14.02-16.49-.33-1.86-.35-3.79-.07-5.66.14-.94-1.3-1.35-1.45-.4h0Z"/>
    <path class="cls-1" d="M11.1,22.63c3.78-.96,5.75-6.16,5.37-9.69-.52-4.88-5.64-6.71-9.17-9.05l-.76,1.3c.89.57.45,1.31.14,2.12-.29.73-.48,1.48-.54,2.26-.12,1.59.7,2.82,1.73,3.95s2.17,2.29,2.89,3.71c.79,1.58.47,2.89-1.08,3.81-.83.5-.07,1.79.76,1.3,1.57-.94,2.56-2.39,2.2-4.26-.34-1.78-1.61-3.31-2.78-4.62-.64-.71-1.38-1.37-1.86-2.2s-.42-1.7-.19-2.59.73-1.67.8-2.57c.07-1-.49-1.7-1.3-2.22s-1.56.77-.76,1.3c2.99,1.98,7.73,3.56,8.41,7.61.27,1.62-.17,3.43-.84,4.91s-1.74,3.06-3.41,3.48c-.93.24-.54,1.69.4,1.45h0Z"/>
    <path class="cls-1" d="M6.01,4.56c-2.31,3.58-3.98,7.52-2.59,11.8,1.15,3.53,3.95,5.43,7.28,6.69.9.34,1.29-1.11.4-1.45-2.92-1.11-5.37-2.77-6.31-5.9-1.14-3.82.48-7.23,2.52-10.39.52-.81-.77-1.57-1.3-.76h0Z"/>
    <path class="cls-1" d="M120.96,12.88c-3.43.05-6.86.24-10.29.21s-6.83-.28-10.23-.62c-2.23-.22-4.47-.43-6.68-.76-1-.15-2-.32-2.97-.57-.56-.14-1.7-.32-2.04-.86-.52-.81-1.82-.06-1.3.76.88,1.37,3.16,1.64,4.61,1.91,2.13.38,4.29.6,6.43.83,3.72.4,7.46.73,11.2.81s7.51-.14,11.26-.2c.96-.02.97-1.52,0-1.5h0Z"/>
    <path class="cls-1" d="M88.5,9.94c-.82-.19-1.6-.95-2.26-1.43-.9-.66-1.8-1.37-2.8-1.87-2.5-1.25-5.62-1.75-8.39-1.86-2.96-.12-5.6.56-8.29,1.72s-5.58,2.74-8.68,2.58v1.5c5.62-.4,8.56,5.7,13.8,6.56,2.71.44,4.99-.77,7.1-2.32s5.25-4.57,8.07-3.42c.89.36,1.28-1.09.4-1.45-2.72-1.11-5.57.92-7.68,2.44-2.3,1.66-4.67,3.82-7.74,3.26-2.58-.47-4.64-2.48-6.68-3.98-2.16-1.58-4.52-2.79-7.27-2.59-.96.07-.97,1.45,0,1.5,2.74.14,5.28-.95,7.74-2.03,2.89-1.28,5.59-2.33,8.8-2.27,2.74.05,6.12.51,8.53,1.93,1,.59,1.91,1.31,2.85,1.99.64.46,1.33,1.03,2.11,1.21.94.22,1.34-1.23.4-1.45h0Z"/>
    <path class="cls-1" d="M87.24,11.41c.17,0,.31,0,.48-.03.88-.14.59-1.41-.2-1.47-.72-.06-1.44-.41-2.14-.6-.88-.24-1.78-.46-2.68-.62-.7-.13-1.42-.21-2.13-.28-2.16-.2-4.33-.26-6.5-.26-2.38,0-4.78.09-7.14.39-1.64.21-3.44.45-4.89,1.31-.83.49-.08,1.79.76,1.3,1.43-.85,3.33-1.03,4.95-1.2,2.3-.24,4.62-.31,6.93-.29,2.04.01,4.08.08,6.11.28.82.08,1.62.21,2.42.39,1.42.31,2.86.98,4.31,1.09l-.2-1.47-.08-.02c-.96.02-.97,1.52,0,1.5h0Z"/>
    <path class="cls-1" d="M151.72,10.58c-6.36,1.37-12.58,3.64-18.01,7.29s-9.8,8.56-12.98,14.26c-.47.84.83,1.6,1.3.76,3.11-5.58,7.38-10.39,12.73-13.92s11.22-5.62,17.36-6.95c.94-.2.54-1.65-.4-1.45h0Z"/>
    <path class="cls-1" d="M120.84,32.51c.37,4.58,1.31,10.47-3.68,13-3.68,1.86-8.38.87-11.05,4.61l1.3.76c.86-1.9,1.73-3.68,2.24-5.71.48-1.91,1.48-3.52,3.01-4.76,1.44-1.18,3.14-1.97,4.67-3.02s2.82-2.37,3.64-4.06c.42-.86-.87-1.63-1.3-.76-1.75,3.61-5.69,4.59-8.49,7.14-1.35,1.23-2.31,2.8-2.83,4.54-.3,1-.5,2.02-.9,2.99s-.9,1.92-1.34,2.89c-.4.88.73,1.55,1.3.76,1.3-1.81,3.51-2.27,5.57-2.66s4.33-.79,6.09-2.13c1.93-1.47,3.15-3.7,3.49-6.08s-.02-5-.22-7.48c-.08-.96-1.58-.96-1.5,0h0Z"/>
    <path class="cls-1" d="M120.63,32.29c.04,1.38-.63,2.69-1.33,3.84-.97,1.59-2.17,3.02-3.43,4.39-2.29,2.48-4.82,4.76-7.48,6.83-.76.59.31,1.65,1.06,1.06,2.82-2.2,5.5-4.63,7.9-7.29,2.09-2.32,4.88-5.48,4.79-8.83-.02-.96-1.53-.97-1.5,0h0Z"/>
    <path class="cls-1" d="M186.28,25.98c-.86-1.31-2.41-1.94-3.86-2.35-1.9-.53-3.9-.75-5.87-.83-1.86-.08-3.75-.04-5.57.39-2.68.63-5.07,2.05-7.6,3.08-.88.36-.5,1.81.4,1.45,2.19-.9,4.28-2.1,6.55-2.8,1.79-.55,3.6-.68,5.46-.64,1.75.04,3.51.18,5.23.55,1.32.29,3.17.69,3.97,1.91.53.8,1.83.05,1.3-.76h0Z"/>
    <path class="cls-1" d="M163.26,27.42c.21,4.05-2.95,6.87-6.82,7.2-1.86.16-3.74-.1-5.6.04s-3.65.77-5.11,2.08l1.18.91c1.2-1.92.82-4.43,2.22-6.22,1.23-1.58,3.13-2.54,4.98-3.19,1.48-.52,2.99-.97,4.53-1.25,1.03-.19,3.33-.67,4.08.38.56.78,1.86.03,1.3-.76-1.02-1.43-2.94-1.44-4.53-1.26-1.88.22-3.71.72-5.49,1.34-2.01.69-3.97,1.62-5.48,3.16-.85.87-1.43,1.88-1.73,3.05-.35,1.36-.41,2.78-1.18,4-.47.75.56,1.46,1.18.91,3.3-2.97,8.11-.93,12.02-2.11,3.64-1.1,6.15-4.45,5.95-8.28-.05-.96-1.55-.97-1.5,0h0Z"/>
    <path class="cls-1" d="M163.58,27.09c-1.58-.15-3.11.38-4.48,1.14s-2.46,1.83-3.81,2.57c-1.15.64-2.4,1.02-3.62,1.48-1.54.59-2.99,1.31-4.33,2.26-.78.55-.03,1.86.76,1.3,1.27-.9,2.62-1.6,4.08-2.15,1.17-.44,2.37-.83,3.49-1.39,2.62-1.32,4.68-4.02,7.91-3.71.96.09.95-1.41,0-1.5h0Z"/>
  </g>
  <g>
    <path class="cls-1" d="M466.95,23.18c1.14,7.51-2.86,15.26-8.97,19.54-7.14,5.01-17.13,5.44-25.44,3.94-18.05-3.26-32.16-15.4-48.28-23.16s-33.28-12.82-50.95-12.96c-4.31-.03-8.59.29-12.78,1.32s-8.26,2.64-12.24,4.32c-7.42,3.13-13.26,8.71-20.12,12.78-4.74,2.81-9.82,5.17-15.05,6.9-4.89,1.62-11.45,3.48-16.38,1.02-1.04-.52-1.96-1.25-2.67-2.19-.57-.76-1.88-.01-1.3.76,3.31,4.39,9.2,4.42,14.15,3.56,6.08-1.06,11.94-3.5,17.42-6.27,6.18-3.12,11.47-7.43,17.23-11.22,3.94-2.59,8.18-4.44,12.59-6.08,4.16-1.55,8.44-2.75,12.87-3.17,9.1-.87,18.53.32,27.42,2.31s18.01,5.14,26.5,9.03c4.2,1.93,8.32,4.05,12.33,6.36s7.62,4.72,11.49,7c8,4.7,16.54,8.86,25.67,10.81,8.41,1.8,18.07,1.74,25.88-2.29,6.47-3.34,11.25-10.06,12.16-17.3.23-1.81.18-3.6-.09-5.4-.14-.95-1.59-.55-1.45.4h0Z"/>
    <path class="cls-1" d="M467.73,21.97c-1.63-.41-2.69-1.94-3.36-3.39s-1.16-3.34-.89-5c.66-4.05,5.43-5.64,8.41-7.61.8-.53.06-1.82-.76-1.3s-1.37,1.22-1.3,2.22c.06.86.54,1.62.76,2.43.26.92.34,1.87-.16,2.72s-1.22,1.49-1.86,2.2c-1.16,1.29-2.39,2.79-2.76,4.53-.41,1.91.58,3.4,2.18,4.36.83.5,1.59-.8.76-1.3-1.49-.9-1.87-2.16-1.12-3.72.7-1.46,1.85-2.62,2.93-3.8,1-1.1,1.81-2.3,1.73-3.85-.04-.82-.25-1.61-.55-2.37-.32-.81-.76-1.55.14-2.12l-.76-1.3c-3.54,2.34-8.65,4.17-9.17,9.05-.38,3.53,1.6,8.73,5.37,9.69.94.24,1.34-1.21.4-1.45h0Z"/>
    <path class="cls-1" d="M471.13,6.11c2.04,3.16,3.66,6.57,2.52,10.39-.93,3.13-3.39,4.79-6.31,5.9-.89.34-.51,1.79.4,1.45,3.33-1.26,6.12-3.16,7.28-6.69,1.4-4.28-.28-8.22-2.59-11.8-.52-.81-1.82-.06-1.3.76h0Z"/>
    <path class="cls-1" d="M357.48,15.17c3.75.06,7.51.28,11.26.2s7.48-.41,11.2-.81c2.15-.23,4.31-.44,6.43-.83,1.45-.26,3.74-.53,4.61-1.91.52-.82-.78-1.57-1.3-.76-.32.51-1.38.69-1.91.83-.97.26-1.97.43-2.96.58-2.26.34-4.55.56-6.83.78-3.32.33-6.65.58-9.99.62-3.51.04-7.02-.16-10.53-.21-.97-.02-.97,1.48,0,1.5h0Z"/>
    <path class="cls-1" d="M390.33,12.18c1.78-.41,3.31-2.2,4.84-3.12,2.44-1.48,5.85-1.95,8.65-2,3.14-.06,5.79.94,8.62,2.19,2.52,1.11,5.11,2.26,7.93,2.12.97-.05.96-1.43,0-1.5-2.74-.19-5.11,1.02-7.27,2.59-2.05,1.49-4.1,3.51-6.68,3.98-3.07.56-5.44-1.59-7.74-3.26-2.1-1.52-4.96-3.55-7.68-2.44-.88.36-.5,1.81.4,1.45,2.81-1.15,5.98,1.9,8.07,3.42s4.39,2.76,7.1,2.32c5.23-.86,8.17-6.96,13.8-6.56v-1.5c-3.1.16-5.92-1.39-8.68-2.58s-5.34-1.83-8.29-1.72c-2.77.11-5.89.62-8.39,1.86-.95.48-1.81,1.15-2.67,1.78-.7.51-1.53,1.33-2.39,1.53-.94.22-.54,1.67.4,1.45h0Z"/>
    <path class="cls-1" d="M391.2,10.71l-.08.02-.2,1.47c1.38-.11,2.74-.74,4.09-1.04.88-.2,1.75-.35,2.64-.44,2.03-.2,4.07-.27,6.11-.28,2.31-.01,4.63.05,6.93.29,1.62.17,3.52.35,4.95,1.2.83.49,1.59-.8.76-1.3-1.45-.86-3.25-1.1-4.89-1.31-2.37-.3-4.76-.39-7.14-.39-2.17,0-4.34.06-6.5.26-.69.06-1.38.14-2.06.26-.85.15-1.69.35-2.52.58-.75.2-1.58.6-2.36.66s-1.09,1.34-.2,1.47c.16.03.31.03.48.03.97.02.97-1.48,0-1.5h0Z"/>
    <path class="cls-1" d="M326.32,12.81c6.13,1.32,12.1,3.47,17.36,6.95s9.62,8.33,12.73,13.92c.47.84,1.77.09,1.3-.76-3.17-5.7-7.55-10.61-12.98-14.26-5.42-3.65-11.65-5.92-18.01-7.29-.94-.2-1.34,1.24-.4,1.45h0Z"/>
    <path class="cls-1" d="M356.09,33.3c-.2,2.44-.58,4.91-.24,7.36s1.53,4.71,3.51,6.21c1.73,1.32,3.89,1.71,5.98,2.11s4.36.84,5.68,2.68c.56.79,1.7.12,1.3-.76-.44-.96-.94-1.91-1.34-2.89s-.6-1.99-.9-2.99c-.52-1.74-1.49-3.32-2.84-4.54-2.8-2.54-6.73-3.53-8.49-7.14-.42-.87-1.72-.11-1.3.76.83,1.7,2.1,3,3.64,4.06s3.23,1.84,4.67,3.02c1.53,1.25,2.52,2.86,3.01,4.76.52,2.03,1.38,3.81,2.24,5.71l1.3-.76c-2.67-3.73-7.37-2.74-11.05-4.61-4.99-2.53-4.05-8.41-3.68-13,.08-.96-1.42-.96-1.5,0h0Z"/>
    <path class="cls-1" d="M356.3,33.08c-.09,3.35,2.7,6.51,4.79,8.83,2.4,2.66,5.08,5.09,7.9,7.29.75.59,1.82-.47,1.06-1.06-2.66-2.08-5.19-4.36-7.48-6.83-1.24-1.34-2.43-2.75-3.39-4.31-.72-1.17-1.42-2.51-1.38-3.92.03-.97-1.47-.97-1.5,0h0Z"/>
    <path class="cls-1" d="M293.45,27.53c.78-1.19,2.55-1.59,3.84-1.88,1.75-.39,3.56-.55,5.35-.58s3.56.07,5.29.59c2.34.7,4.47,1.93,6.72,2.85.89.37,1.28-1.08.4-1.45-2.47-1.01-4.81-2.4-7.42-3.04-1.88-.46-3.83-.51-5.75-.43s-3.88.29-5.75.8c-1.5.41-3.1,1.04-3.98,2.38-.53.81.77,1.56,1.3.76h0Z"/>
    <path class="cls-1" d="M313.68,28.21c-.2,3.83,2.31,7.17,5.95,8.28,3.91,1.19,8.71-.86,12.02,2.11.61.55,1.65-.16,1.18-.91-.74-1.18-.82-2.55-1.15-3.87-.3-1.23-.88-2.27-1.76-3.18-1.5-1.54-3.47-2.47-5.48-3.16-1.78-.61-3.62-1.12-5.49-1.34-1.58-.18-3.51-.17-4.53,1.26-.56.79.74,1.54,1.3.76.73-1.03,2.97-.58,3.98-.4,1.58.28,3.13.74,4.64,1.27,1.81.64,3.64,1.56,4.88,3.06,1.5,1.81,1.09,4.39,2.32,6.35l1.18-.91c-1.42-1.28-3.09-1.91-4.98-2.07s-3.82.1-5.73-.06c-3.87-.32-7.04-3.16-6.82-7.2.05-.96-1.45-.96-1.5,0h0Z"/>
    <path class="cls-1" d="M314.86,29.38c3.23-.31,5.29,2.39,7.91,3.71,1.09.55,2.24.93,3.38,1.35,1.49.56,2.88,1.27,4.18,2.19.79.56,1.54-.74.76-1.3-1.31-.93-2.72-1.65-4.22-2.22-1.25-.48-2.55-.87-3.72-1.53-1.3-.72-2.39-1.77-3.69-2.51-1.4-.79-2.97-1.36-4.59-1.2-.95.09-.96,1.59,0,1.5h0Z"/>
  </g>
  <polygon class="cls-2" points="253.39 35.03 239.03 46.18 224.73 34.96 224.79 12.59 239.15 1.44 253.45 12.67 253.39 35.03"/>
</svg>