<?xml version="1.0" encoding="UTF-8"?>
<svg id="OBJECTS" xmlns="http://www.w3.org/2000/svg" viewBox="0 0 478.44 56.89">
  <defs>
    <style>
      .cls-1 {
        fill: #e8ca6f;
        stroke-width: 0px;
      }

      .cls-2 {
        fill: none;
        stroke: #e8ca6f;
        stroke-linecap: round;
        stroke-linejoin: round;
        stroke-width: 2px;
      }
    </style>
  </defs>
  <polygon class="cls-2" points="254.83 9.75 270.45 30.54 254.83 51.34 223.6 51.34 207.99 30.54 223.6 9.75 254.83 9.75"/>
  <g>
    <path class="cls-1" d="M6.84,18.81c-1.04,6.92,1.98,13.93,7.2,18.47,6.03,5.26,14.84,6.56,22.58,5.87,8.52-.76,16.64-3.93,24.18-7.86s14.6-8.93,22.22-12.85c15.36-7.91,32.56-13.4,49.96-13.62,4.36-.06,8.65.28,12.87,1.4s8.2,2.63,12.01,4.47c6.56,3.15,11.89,8.27,18.21,11.83,4.84,2.73,10.01,5.06,15.36,6.59,4.63,1.33,10.66,2.53,15.05-.18.94-.58,1.71-1.33,2.37-2.21.58-.77-.72-1.52-1.3-.76-3.1,4.09-9.37,3.25-13.71,2.23-5.42-1.28-10.63-3.53-15.53-6.15-5.74-3.06-10.63-7.36-16.18-10.73-3.48-2.11-7.29-3.63-11.11-5.01s-7.34-2.29-11.18-2.71c-8.15-.89-16.64.09-24.64,1.72-8.17,1.66-16.12,4.27-23.78,7.53-7.59,3.23-14.71,7.23-21.7,11.58s-14.69,8.6-22.8,11.12-16.85,3.24-25.03.52c-6.88-2.29-12.24-8.29-13.54-15.47-.32-1.77-.35-3.59-.08-5.37.14-.94-1.3-1.35-1.45-.4h0Z"/>
    <path class="cls-1" d="M7.9,19.47c3.56-.91,5.42-5.79,5.07-9.12-.49-4.6-5.28-6.31-8.62-8.52l-.76,1.3c.81.52.39,1.2.11,1.94-.27.69-.45,1.4-.51,2.13-.11,1.5.66,2.67,1.63,3.74s2.03,2.14,2.69,3.46c.73,1.46.43,2.65-.99,3.51-.83.5-.07,1.79.76,1.3,1.49-.89,2.42-2.27,2.08-4.05-.32-1.67-1.52-3.12-2.62-4.35-.59-.66-1.28-1.27-1.73-2.05s-.38-1.57-.17-2.39.69-1.57.75-2.42c.07-.96-.47-1.62-1.24-2.12-.82-.52-1.56.77-.76,1.3,2.79,1.84,7.23,3.32,7.85,7.1.25,1.51-.16,3.19-.78,4.56s-1.62,2.85-3.16,3.24c-.93.24-.54,1.69.4,1.45h0Z"/>
    <path class="cls-1" d="M3.08,2.48C.91,5.85-.65,9.55.65,13.57c1.08,3.32,3.71,5.11,6.85,6.3.9.34,1.29-1.11.4-1.45-2.72-1.03-5-2.58-5.87-5.49-1.06-3.56.45-6.74,2.35-9.69.52-.81-.77-1.57-1.3-.76h0Z"/>
    <path class="cls-1" d="M110.76,10.25c-6.45.1-12.77.26-19.2-.38-2.11-.21-4.23-.41-6.32-.72-.94-.14-1.88-.3-2.79-.54-.5-.13-1.51-.29-1.81-.77-.52-.81-1.82-.06-1.3.76.84,1.31,2.98,1.56,4.37,1.81,1.95.35,3.94.55,5.91.76,3.49.38,6.99.69,10.51.77s7.1-.13,10.65-.18c.96-.02.97-1.52,0-1.5h0Z"/>
    <path class="cls-1" d="M80.38,7.5c-.76-.18-1.49-.89-2.1-1.33-.84-.61-1.68-1.28-2.61-1.75-2.33-1.18-5.26-1.65-7.85-1.76-2.75-.11-5.2.48-7.72,1.56s-5.29,2.61-8.23,2.46v1.5c5.27-.36,8.01,5.36,12.92,6.14,2.52.4,4.65-.7,6.62-2.14s4.93-4.3,7.57-3.24c.89.36,1.28-1.09.4-1.45-2.54-1.03-5.2.83-7.17,2.25-2.16,1.56-4.38,3.61-7.26,3.08-2.42-.44-4.35-2.34-6.27-3.74-2.02-1.47-4.24-2.6-6.81-2.42-.96.07-.97,1.45,0,1.5,2.52.13,4.85-.85,7.11-1.84,2.77-1.22,5.32-2.25,8.39-2.19,2.62.05,5.82.5,8.1,1.89,1.42.87,2.84,2.51,4.5,2.9.94.22,1.34-1.22.4-1.45h0Z"/>
    <path class="cls-1" d="M79.19,8.97c.16,0,.3,0,.46-.03.88-.14.59-1.41-.2-1.47-.67-.05-1.34-.38-1.99-.56-.83-.23-1.66-.43-2.51-.58-.66-.12-1.33-.2-2.01-.26-2.02-.19-4.06-.25-6.09-.24-2.23,0-4.47.08-6.69.36-1.55.2-3.24.42-4.6,1.23-.83.49-.08,1.79.76,1.3,1.34-.79,3.1-.96,4.62-1.12,2.15-.23,4.32-.29,6.49-.27,1.91.01,3.82.07,5.72.26.76.08,1.5.2,2.25.36,1.34.29,2.69.92,4.05,1.02l-.2-1.47-.06-.02c-.96.02-.97,1.52,0,1.5h0Z"/>
    <path class="cls-1" d="M139.55,8.09c-5.96,1.29-11.8,3.41-16.88,6.84s-9.18,8.02-12.16,13.37c-.47.84.83,1.6,1.3.76,2.91-5.22,6.91-9.72,11.91-13.02s10.5-5.26,16.24-6.49c.94-.2.54-1.65-.4-1.45h0Z"/>
    <path class="cls-1" d="M110.61,28.67c.34,4.27,1.23,9.77-3.42,12.13-3.46,1.75-7.85.82-10.36,4.33l1.3.76c.81-1.78,1.62-3.46,2.11-5.36.45-1.78,1.38-3.28,2.8-4.44,1.34-1.1,2.93-1.84,4.36-2.82s2.65-2.22,3.43-3.82c.42-.86-.87-1.63-1.3-.76-1.64,3.37-5.32,4.29-7.94,6.67-1.27,1.16-2.17,2.63-2.67,4.27-.28.94-.47,1.89-.84,2.8s-.84,1.79-1.25,2.69.73,1.55,1.3.76c1.21-1.68,3.27-2.11,5.19-2.47s4.06-.74,5.72-2c1.82-1.38,2.96-3.48,3.29-5.72s-.02-4.69-.2-7.02c-.08-.96-1.58-.96-1.5,0h0Z"/>
    <path class="cls-1" d="M110.41,28.47c.03,1.29-.59,2.5-1.24,3.57-.9,1.48-2.03,2.82-3.21,4.1-2.15,2.32-4.52,4.45-7.01,6.4-.76.59.31,1.65,1.06,1.06,2.64-2.06,5.15-4.34,7.4-6.83,1.97-2.18,4.58-5.16,4.5-8.3-.02-.96-1.53-.97-1.5,0h0Z"/>
    <path class="cls-1" d="M171.98,22.54c-.81-1.24-2.27-1.83-3.65-2.22-1.78-.5-3.66-.7-5.51-.78-1.75-.07-3.52-.04-5.23.36-2.51.59-4.75,1.92-7.11,2.89-.88.36-.5,1.81.4,1.45,2.05-.84,4.01-1.96,6.14-2.62,1.67-.52,3.37-.63,5.1-.6,1.64.03,3.28.17,4.88.52,1.22.26,2.95.63,3.69,1.76.53.8,1.83.05,1.3-.76h0Z"/>
    <path class="cls-1" d="M150.32,23.91c.2,3.76-2.74,6.39-6.34,6.69-1.75.15-3.5-.09-5.24.04s-3.44.73-4.82,1.97l1.18.91c1.12-1.79.76-4.15,2.08-5.82,1.15-1.47,2.91-2.36,4.64-2.97,1.38-.49,2.8-.91,4.25-1.17.94-.17,3.08-.62,3.77.34.56.78,1.86.03,1.3-.76-.97-1.35-2.78-1.38-4.28-1.2-1.76.2-3.48.68-5.16,1.25-1.89.65-3.74,1.53-5.15,2.97-.8.82-1.35,1.77-1.63,2.87-.33,1.27-.39,2.59-1.1,3.73-.47.75.56,1.46,1.18.91,3.08-2.77,7.59-.86,11.23-1.96,3.43-1.03,5.8-4.2,5.6-7.8-.05-.96-1.55-.97-1.5,0h0Z"/>
    <path class="cls-1" d="M150.68,23.55c-1.49-.14-2.93.36-4.21,1.07s-2.31,1.71-3.57,2.41c-1.07.59-2.24.95-3.38,1.39-1.44.55-2.8,1.23-4.07,2.13-.78.55-.03,1.86.76,1.3,1.18-.84,2.45-1.5,3.81-2.01,1.1-.41,2.22-.78,3.28-1.31,2.44-1.24,4.37-3.75,7.38-3.47.96.09.95-1.41,0-1.5h0Z"/>
  </g>
  <g>
    <path class="cls-1" d="M470.15,19.63c1.07,7.13-2.79,14.45-8.64,18.43-6.77,4.59-16.15,4.9-23.94,3.42-16.74-3.17-29.85-14.42-44.85-21.63s-31.29-12.02-47.88-12.11c-4-.02-7.98.3-11.87,1.26s-7.67,2.46-11.37,4.02c-6.92,2.92-12.38,8.12-18.77,11.92-4.42,2.63-9.17,4.84-14.05,6.47-4.59,1.53-10.74,3.29-15.38,1.01-.98-.48-1.84-1.17-2.51-2.04-.58-.76-1.88-.01-1.3.76,3.08,4.07,8.51,4.16,13.13,3.38,5.75-.97,11.31-3.28,16.5-5.9,5.72-2.88,10.62-6.84,15.93-10.37,3.72-2.47,7.72-4.23,11.89-5.8,3.87-1.45,7.85-2.58,11.98-2.99,8.53-.84,17.38.26,25.72,2.12s16.91,4.81,24.89,8.46c3.95,1.81,7.81,3.8,11.58,5.97s7.13,4.42,10.75,6.55c7.41,4.35,15.31,8.21,23.75,10.07,7.93,1.75,17.02,1.74,24.42-2.01,6.14-3.11,10.69-9.45,11.56-16.28.22-1.71.17-3.4-.08-5.1-.14-.95-1.59-.55-1.45.4h0Z"/>
    <path class="cls-1" d="M470.94,18.44c-1.52-.39-2.5-1.8-3.12-3.15s-1.08-3.11-.82-4.65c.61-3.77,5.07-5.26,7.85-7.1.8-.53.06-1.82-.76-1.3-.77.49-1.31,1.16-1.24,2.12.06.81.5,1.52.72,2.29.24.85.31,1.72-.14,2.51s-1.14,1.39-1.73,2.05c-1.09,1.21-2.25,2.62-2.6,4.26-.39,1.81.54,3.22,2.06,4.13.83.5,1.59-.8.76-1.3-1.38-.82-1.73-1.98-1.04-3.42s1.73-2.45,2.74-3.55c.95-1.04,1.71-2.17,1.64-3.63-.04-.77-.23-1.52-.51-2.23s-.71-1.41.11-1.94l-.76-1.3c-3.33,2.2-8.13,3.92-8.62,8.52-.35,3.33,1.51,8.22,5.07,9.12.94.24,1.34-1.21.4-1.45h0Z"/>
    <path class="cls-1" d="M474.06,3.66c1.9,2.95,3.42,6.13,2.35,9.69-.87,2.91-3.16,4.46-5.87,5.49-.89.34-.51,1.79.4,1.45,3.14-1.19,5.76-2.97,6.85-6.3,1.31-4.02-.26-7.73-2.43-11.09-.52-.81-1.82-.06-1.3.76h0Z"/>
    <path class="cls-1" d="M367.67,12.17c3.55.06,7.1.26,10.64.18,3.51-.07,7.02-.39,10.51-.77,1.97-.21,3.96-.41,5.91-.76,1.38-.25,3.52-.5,4.37-1.81.52-.81-.77-1.57-1.3-.76-.31.48-1.31.63-1.81.77-.92.24-1.86.4-2.79.54-2.1.31-4.21.51-6.32.72-6.43.64-12.76.48-19.2.38-.97-.02-.97,1.48,0,1.5h0Z"/>
    <path class="cls-1" d="M398.45,9.37c1.61-.38,3.01-1.97,4.38-2.83,2.3-1.45,5.55-1.92,8.22-1.97,3-.06,5.51.91,8.21,2.11,2.32,1.02,4.71,2.05,7.3,1.92.97-.05.96-1.43,0-1.5-2.57-.18-4.79.95-6.81,2.42s-3.85,3.3-6.27,3.74c-2.89.52-5.1-1.52-7.26-3.08-1.98-1.42-4.63-3.28-7.17-2.25-.88.36-.5,1.81.4,1.45,2.64-1.07,5.61,1.81,7.57,3.24s4.1,2.55,6.62,2.14c4.91-.79,7.66-6.51,12.92-6.14v-1.5c-2.94.15-5.61-1.34-8.23-2.46s-4.97-1.67-7.72-1.56c-2.59.11-5.51.58-7.85,1.76-.89.45-1.69,1.07-2.48,1.65-.65.47-1.43,1.24-2.23,1.43-.94.22-.54,1.67.4,1.45h0Z"/>
    <path class="cls-1" d="M399.25,7.89l-.06.02-.2,1.47c1.3-.1,2.57-.69,3.84-.98.82-.18,1.63-.32,2.46-.41,1.9-.19,3.81-.25,5.72-.26,2.16-.01,4.34.05,6.49.27,1.51.16,3.28.32,4.62,1.12.83.49,1.59-.8.76-1.3-1.36-.81-3.05-1.04-4.6-1.23-2.22-.28-4.46-.36-6.69-.36-2.03,0-4.07.06-6.09.24-.65.06-1.3.13-1.94.25-.79.14-1.58.33-2.36.54-.7.19-1.47.56-2.19.61-.78.06-1.09,1.34-.2,1.47.16.02.3.03.46.03.97.02.97-1.48,0-1.5h0Z"/>
    <path class="cls-1" d="M338.48,9.96c5.74,1.24,11.32,3.25,16.24,6.49s9,7.79,11.91,13.02c.47.84,1.77.09,1.3-.76-2.98-5.34-7.08-9.95-12.16-13.37s-10.92-5.55-16.88-6.84c-.94-.2-1.34,1.24-.4,1.45h0Z"/>
    <path class="cls-1" d="M366.33,29.1c-.18,2.29-.54,4.61-.22,6.9s1.45,4.43,3.31,5.84c1.63,1.24,3.65,1.61,5.61,1.98s4.06.78,5.29,2.49c.56.79,1.7.12,1.3-.76s-.87-1.78-1.25-2.69-.56-1.86-.84-2.8c-.49-1.64-1.4-3.12-2.67-4.27-2.62-2.38-6.3-3.3-7.94-6.67-.42-.87-1.72-.11-1.3.76.78,1.6,1.97,2.82,3.43,3.82s3.01,1.72,4.36,2.82c1.42,1.16,2.35,2.66,2.8,4.44.49,1.9,1.29,3.58,2.11,5.36l1.3-.76c-2.51-3.51-6.91-2.58-10.36-4.33-4.65-2.36-3.77-7.86-3.42-12.13.08-.96-1.42-.96-1.5,0h0Z"/>
    <path class="cls-1" d="M366.53,28.9c-.08,3.15,2.53,6.12,4.5,8.3,2.24,2.49,4.76,4.76,7.4,6.83.75.59,1.82-.47,1.06-1.06-2.49-1.94-4.86-4.08-7.01-6.4-1.16-1.25-2.27-2.57-3.16-4.03-.67-1.09-1.32-2.33-1.29-3.64.03-.97-1.47-.97-1.5,0h0Z"/>
    <path class="cls-1" d="M307.76,23.72c.72-1.1,2.38-1.47,3.57-1.74,1.64-.37,3.33-.51,5-.54s3.32.07,4.94.55c2.19.65,4.19,1.81,6.3,2.67.89.37,1.28-1.08.4-1.45-2.32-.95-4.5-2.24-6.95-2.85-1.76-.43-3.59-.48-5.4-.4s-3.65.27-5.39.75c-1.41.38-2.92.98-3.76,2.25-.53.81.77,1.56,1.3.76h0Z"/>
    <path class="cls-1" d="M326.61,24.33c-.19,3.61,2.18,6.76,5.6,7.8,3.65,1.11,8.15-.81,11.23,1.96.61.55,1.65-.16,1.18-.91-.69-1.1-.77-2.38-1.07-3.61-.28-1.16-.83-2.14-1.66-3-1.41-1.45-3.26-2.33-5.15-2.97-1.67-.57-3.4-1.05-5.16-1.25-1.5-.17-3.31-.15-4.28,1.2-.56.79.74,1.54,1.3.76.67-.94,2.75-.52,3.67-.35,1.48.26,2.93.69,4.34,1.19,1.68.59,3.39,1.46,4.55,2.86,1.4,1.69,1.02,4.1,2.17,5.94l1.18-.91c-1.34-1.21-2.91-1.8-4.7-1.96s-3.58.1-5.36-.05c-3.6-.3-6.54-2.94-6.34-6.69.05-.96-1.45-.96-1.5,0h0Z"/>
    <path class="cls-1" d="M327.76,25.48c3.01-.29,4.94,2.23,7.38,3.47,1.02.52,2.11.87,3.18,1.27,1.39.52,2.69,1.19,3.91,2.05.79.56,1.54-.74.76-1.3-1.23-.87-2.56-1.54-3.97-2.09-1.17-.45-2.38-.81-3.48-1.42-1.22-.68-2.24-1.66-3.46-2.35-1.31-.75-2.79-1.28-4.32-1.13-.95.09-.96,1.59,0,1.5h0Z"/>
  </g>
  <path class="cls-2" d="M231.19,11.99l18.8-4.2,19.53,16.68-10.58,23.41-30.11,6.73-19.53-16.68,10.58-23.41,11.31-2.53"/>
</svg>