<svg width="446.50000000000006" height="51.68" xmlns="http://www.w3.org/2000/svg">
 <title>divider6</title>

 <g>
  <title>Layer 1</title>
  <g id="svg_1">
   <path id="svg_2" stroke-width="0px" fill="#e8ca6f" d="m7.45935,18.44161c-1.12,7.37 2.13,14.86 7.69,19.7c6.39,5.56 15.7,6.95 23.89,6.25c9.21,-0.79 17.99,-4.24 26.12,-8.49s15.46,-9.47 23.53,-13.63c16.36,-8.43 34.68,-14.28 53.21,-14.57c4.66,-0.07 9.27,0.27 13.79,1.45s8.79,2.81 12.89,4.77c7.09,3.38 12.83,8.9 19.64,12.73c5.13,2.88 10.6,5.34 16.26,6.97c4.94,1.42 11.37,2.72 16.05,-0.17c1,-0.62 1.83,-1.42 2.53,-2.35c0.58,-0.77 -0.72,-1.52 -1.3,-0.76c-3.3,4.36 -9.95,3.51 -14.59,2.43c-5.79,-1.35 -11.36,-3.75 -16.6,-6.54c-6.15,-3.27 -11.39,-7.86 -17.32,-11.47c-3.75,-2.28 -7.85,-3.92 -11.97,-5.41s-8.06,-2.49 -12.28,-2.91c-8.66,-0.86 -17.64,0.18 -26.13,1.93c-8.72,1.8 -17.22,4.6 -25.4,8.1s-15.69,7.77 -23.16,12.41s-15.79,9.19 -24.5,11.84c-8.75,2.66 -18.1,3.3 -26.84,0.26c-7.17,-2.5 -12.7,-9 -14.02,-16.49c-0.33,-1.86 -0.35,-3.79 -0.07,-5.66c0.14,-0.94 -1.3,-1.35 -1.45,-0.4l0,0l0.03,0.01z" class="cls-1"/>
   <path id="svg_3" stroke-width="0px" fill="#e8ca6f" d="m8.51935,19.08161c3.78,-0.96 5.75,-6.16 5.37,-9.69c-0.52,-4.88 -5.64,-6.71 -9.17,-9.05l-0.76,1.3c0.89,0.57 0.45,1.31 0.14,2.12c-0.29,0.73 -0.48,1.48 -0.54,2.26c-0.12,1.59 0.7,2.82 1.73,3.95s2.17,2.29 2.89,3.71c0.79,1.58 0.47,2.89 -1.08,3.81c-0.83,0.5 -0.07,1.79 0.76,1.3c1.57,-0.94 2.56,-2.39 2.2,-4.26c-0.34,-1.78 -1.61,-3.31 -2.78,-4.62c-0.64,-0.71 -1.38,-1.37 -1.86,-2.2s-0.42,-1.7 -0.19,-2.59s0.73,-1.67 0.8,-2.57c0.07,-1 -0.49,-1.7 -1.3,-2.22s-1.56,0.77 -0.76,1.3c2.99,1.98 7.73,3.56 8.41,7.61c0.27,1.62 -0.17,3.43 -0.84,4.91s-1.74,3.06 -3.41,3.48c-0.93,0.24 -0.54,1.69 0.4,1.45l0,0l-0.01,0z" class="cls-1"/>
   <path id="svg_4" stroke-width="0px" fill="#e8ca6f" d="m3.42935,1.01161c-2.31,3.58 -3.98,7.52 -2.59,11.8c1.15,3.53 3.95,5.43 7.28,6.69c0.9,0.34 1.29,-1.11 0.4,-1.45c-2.92,-1.11 -5.37,-2.77 -6.31,-5.9c-1.14,-3.82 0.48,-7.23 2.52,-10.39c0.52,-0.81 -0.77,-1.57 -1.3,-0.76l0,0l0,0.01z" class="cls-1"/>
   <path id="svg_5" stroke-width="0px" fill="#e8ca6f" d="m118.37935,9.33161c-3.43,0.05 -6.86,0.24 -10.29,0.21s-6.83,-0.28 -10.23,-0.62c-2.23,-0.22 -4.47,-0.43 -6.68,-0.76c-1,-0.15 -2,-0.32 -2.97,-0.57c-0.56,-0.14 -1.7,-0.32 -2.04,-0.86c-0.52,-0.81 -1.82,-0.06 -1.3,0.76c0.88,1.37 3.16,1.64 4.61,1.91c2.13,0.38 4.29,0.6 6.43,0.83c3.72,0.4 7.46,0.73 11.2,0.81s7.51,-0.14 11.26,-0.2c0.96,-0.02 0.97,-1.52 0,-1.5l0,0l0.01,-0.01z" class="cls-1"/>
   <path id="svg_6" stroke-width="0px" fill="#e8ca6f" d="m85.91935,6.39161c-0.82,-0.19 -1.6,-0.95 -2.26,-1.43c-0.9,-0.66 -1.8,-1.37 -2.8,-1.87c-2.5,-1.25 -5.62,-1.75 -8.39,-1.86c-2.96,-0.12 -5.6,0.56 -8.29,1.72s-5.58,2.74 -8.68,2.58l0,1.5c5.62,-0.4 8.56,5.7 13.8,6.56c2.71,0.44 4.99,-0.77 7.1,-2.32s5.25,-4.57 8.07,-3.42c0.89,0.36 1.28,-1.09 0.4,-1.45c-2.72,-1.11 -5.57,0.92 -7.68,2.44c-2.3,1.66 -4.67,3.82 -7.74,3.26c-2.58,-0.47 -4.64,-2.48 -6.68,-3.98c-2.16,-1.58 -4.52,-2.79 -7.27,-2.59c-0.96,0.07 -0.97,1.45 0,1.5c2.74,0.14 5.28,-0.95 7.74,-2.03c2.89,-1.28 5.59,-2.33 8.8,-2.27c2.74,0.05 6.12,0.51 8.53,1.93c1,0.59 1.91,1.31 2.85,1.99c0.64,0.46 1.33,1.03 2.11,1.21c0.94,0.22 1.34,-1.23 0.4,-1.45l0,0l-0.01,-0.02z" class="cls-1"/>
   <path id="svg_7" stroke-width="0px" fill="#e8ca6f" d="m84.65935,7.86161c0.17,0 0.31,0 0.48,-0.03c0.88,-0.14 0.59,-1.41 -0.2,-1.47c-0.72,-0.06 -1.44,-0.41 -2.14,-0.6c-0.88,-0.24 -1.78,-0.46 -2.68,-0.62c-0.7,-0.13 -1.42,-0.21 -2.13,-0.28c-2.16,-0.2 -4.33,-0.26 -6.5,-0.26c-2.38,0 -4.78,0.09 -7.14,0.39c-1.64,0.21 -3.44,0.45 -4.89,1.31c-0.83,0.49 -0.08,1.79 0.76,1.3c1.43,-0.85 3.33,-1.03 4.95,-1.2c2.3,-0.24 4.62,-0.31 6.93,-0.29c2.04,0.01 4.08,0.08 6.11,0.28c0.82,0.08 1.62,0.21 2.42,0.39c1.42,0.31 2.86,0.98 4.31,1.09l-0.2,-1.47l-0.08,-0.02c-0.96,0.02 -0.97,1.52 0,1.5l0,0l0,-0.02z" class="cls-1"/>
   <path id="svg_8" stroke-width="0px" fill="#e8ca6f" d="m149.13935,7.03161c-6.36,1.37 -12.58,3.64 -18.01,7.29s-9.8,8.56 -12.98,14.26c-0.47,0.84 0.83,1.6 1.3,0.76c3.11,-5.58 7.38,-10.39 12.73,-13.92s11.22,-5.62 17.36,-6.95c0.94,-0.2 0.54,-1.65 -0.4,-1.45l0,0l0,0.01z" class="cls-1"/>
   <path id="svg_9" stroke-width="0px" fill="#e8ca6f" d="m118.25935,28.96161c0.37,4.58 1.31,10.47 -3.68,13c-3.68,1.86 -8.38,0.87 -11.05,4.61l1.3,0.76c0.86,-1.9 1.73,-3.68 2.24,-5.71c0.48,-1.91 1.48,-3.52 3.01,-4.76c1.44,-1.18 3.14,-1.97 4.67,-3.02s2.82,-2.37 3.64,-4.06c0.42,-0.86 -0.87,-1.63 -1.3,-0.76c-1.75,3.61 -5.69,4.59 -8.49,7.14c-1.35,1.23 -2.31,2.8 -2.83,4.54c-0.3,1 -0.5,2.02 -0.9,2.99s-0.9,1.92 -1.34,2.89c-0.4,0.88 0.73,1.55 1.3,0.76c1.3,-1.81 3.51,-2.27 5.57,-2.66s4.33,-0.79 6.09,-2.13c1.93,-1.47 3.15,-3.7 3.49,-6.08s-0.02,-5 -0.22,-7.48c-0.08,-0.96 -1.58,-0.96 -1.5,0l0,0l0,-0.03z" class="cls-1"/>
   <path id="svg_10" stroke-width="0px" fill="#e8ca6f" d="m118.04935,28.74161c0.04,1.38 -0.63,2.69 -1.33,3.84c-0.97,1.59 -2.17,3.02 -3.43,4.39c-2.29,2.48 -4.82,4.76 -7.48,6.83c-0.76,0.59 0.31,1.65 1.06,1.06c2.82,-2.2 5.5,-4.63 7.9,-7.29c2.09,-2.32 4.88,-5.48 4.79,-8.83c-0.02,-0.96 -1.53,-0.97 -1.5,0l0,0l-0.01,0z" class="cls-1"/>
   <path id="svg_11" stroke-width="0px" fill="#e8ca6f" d="m183.69935,22.43161c-0.86,-1.31 -2.41,-1.94 -3.86,-2.35c-1.9,-0.53 -3.9,-0.75 -5.87,-0.83c-1.86,-0.08 -3.75,-0.04 -5.57,0.39c-2.68,0.63 -5.07,2.05 -7.6,3.08c-0.88,0.36 -0.5,1.81 0.4,1.45c2.19,-0.9 4.28,-2.1 6.55,-2.8c1.79,-0.55 3.6,-0.68 5.46,-0.64c1.75,0.04 3.51,0.18 5.23,0.55c1.32,0.29 3.17,0.69 3.97,1.91c0.53,0.8 1.83,0.05 1.3,-0.76l0,0l-0.01,0z" class="cls-1"/>
   <path id="svg_12" stroke-width="0px" fill="#e8ca6f" d="m160.67935,23.87161c0.21,4.05 -2.95,6.87 -6.82,7.2c-1.86,0.16 -3.74,-0.1 -5.6,0.04s-3.65,0.77 -5.11,2.08l1.18,0.91c1.2,-1.92 0.82,-4.43 2.22,-6.22c1.23,-1.58 3.13,-2.54 4.98,-3.19c1.48,-0.52 2.99,-0.97 4.53,-1.25c1.03,-0.19 3.33,-0.67 4.08,0.38c0.56,0.78 1.86,0.03 1.3,-0.76c-1.02,-1.43 -2.94,-1.44 -4.53,-1.26c-1.88,0.22 -3.71,0.72 -5.49,1.34c-2.01,0.69 -3.97,1.62 -5.48,3.16c-0.85,0.87 -1.43,1.88 -1.73,3.05c-0.35,1.36 -0.41,2.78 -1.18,4c-0.47,0.75 0.56,1.46 1.18,0.91c3.3,-2.97 8.11,-0.93 12.02,-2.11c3.64,-1.1 6.15,-4.45 5.95,-8.28c-0.05,-0.96 -1.55,-0.97 -1.5,0l0,0z" class="cls-1"/>
   <path id="svg_13" stroke-width="0px" fill="#e8ca6f" d="m160.99935,23.54161c-1.58,-0.15 -3.11,0.38 -4.48,1.14s-2.46,1.83 -3.81,2.57c-1.15,0.64 -2.4,1.02 -3.62,1.48c-1.54,0.59 -2.99,1.31 -4.33,2.26c-0.78,0.55 -0.03,1.86 0.76,1.3c1.27,-0.9 2.62,-1.6 4.08,-2.15c1.17,-0.44 2.37,-0.83 3.49,-1.39c2.62,-1.32 4.68,-4.02 7.91,-3.71c0.96,0.09 0.95,-1.41 0,-1.5l0,0z" class="cls-1"/>
  </g>
  <g id="svg_14">
   <path id="svg_15" stroke-width="0px" fill="#e8ca6f" d="m437.59516,18.98645c1.14,7.51 -2.86,15.26 -8.97,19.54c-7.14,5.01 -17.13,5.44 -25.44,3.94c-18.05,-3.26 -32.16,-15.4 -48.28,-23.16s-33.28,-12.82 -50.95,-12.96c-4.31,-0.03 -8.59,0.29 -12.78,1.32s-8.26,2.64 -12.24,4.32c-7.42,3.13 -13.26,8.71 -20.12,12.78c-4.74,2.81 -9.82,5.17 -15.05,6.9c-4.89,1.62 -11.45,3.48 -16.38,1.02c-1.04,-0.52 -1.96,-1.25 -2.67,-2.19c-0.57,-0.76 -1.88,-0.01 -1.3,0.76c3.31,4.39 9.2,4.42 14.15,3.56c6.08,-1.06 11.94,-3.5 17.42,-6.27c6.18,-3.12 11.47,-7.43 17.23,-11.22c3.94,-2.59 8.18,-4.44 12.59,-6.08c4.16,-1.55 8.44,-2.75 12.87,-3.17c9.1,-0.87 18.53,0.32 27.42,2.31s18.01,5.14 26.5,9.03c4.2,1.93 8.32,4.05 12.33,6.36s7.62,4.72 11.49,7c8,4.7 16.54,8.86 25.67,10.81c8.41,1.8 18.07,1.74 25.88,-2.29c6.47,-3.34 11.25,-10.06 12.16,-17.3c0.23,-1.81 0.18,-3.6 -0.09,-5.4c-0.14,-0.95 -1.59,-0.55 -1.45,0.4l0,0l0.01,-0.01z" class="cls-1"/>
   <path id="svg_16" stroke-width="0px" fill="#e8ca6f" d="m438.37516,17.77645c-1.63,-0.41 -2.69,-1.94 -3.36,-3.39s-1.16,-3.34 -0.89,-5c0.66,-4.05 5.43,-5.64 8.41,-7.61c0.8,-0.53 0.06,-1.82 -0.76,-1.3s-1.37,1.22 -1.3,2.22c0.06,0.86 0.54,1.62 0.76,2.43c0.26,0.92 0.34,1.87 -0.16,2.72s-1.22,1.49 -1.86,2.2c-1.16,1.29 -2.39,2.79 -2.76,4.53c-0.41,1.91 0.58,3.4 2.18,4.36c0.83,0.5 1.59,-0.8 0.76,-1.3c-1.49,-0.9 -1.87,-2.16 -1.12,-3.72c0.7,-1.46 1.85,-2.62 2.93,-3.8c1,-1.1 1.81,-2.3 1.73,-3.85c-0.04,-0.82 -0.25,-1.61 -0.55,-2.37c-0.32,-0.81 -0.76,-1.55 0.14,-2.12l-0.76,-1.3c-3.54,2.34 -8.65,4.17 -9.17,9.05c-0.38,3.53 1.6,8.73 5.37,9.69c0.94,0.24 1.34,-1.21 0.4,-1.45l0,0l0.01,0.01z" class="cls-1"/>
   <path id="svg_17" stroke-width="0px" fill="#e8ca6f" d="m441.77516,1.91645c2.04,3.16 3.66,6.57 2.52,10.39c-0.93,3.13 -3.39,4.79 -6.31,5.9c-0.89,0.34 -0.51,1.79 0.4,1.45c3.33,-1.26 6.12,-3.16 7.28,-6.69c1.4,-4.28 -0.28,-8.22 -2.59,-11.8c-0.52,-0.81 -1.82,-0.06 -1.3,0.76l0,0l0,-0.01z" class="cls-1"/>
   <path id="svg_18" stroke-width="0px" fill="#e8ca6f" d="m328.12516,10.97645c3.75,0.06 7.51,0.28 11.26,0.2s7.48,-0.41 11.2,-0.81c2.15,-0.23 4.31,-0.44 6.43,-0.83c1.45,-0.26 3.74,-0.53 4.61,-1.91c0.52,-0.82 -0.78,-1.57 -1.3,-0.76c-0.32,0.51 -1.38,0.69 -1.91,0.83c-0.97,0.26 -1.97,0.43 -2.96,0.58c-2.26,0.34 -4.55,0.56 -6.83,0.78c-3.32,0.33 -6.65,0.58 -9.99,0.62c-3.51,0.04 -7.02,-0.16 -10.53,-0.21c-0.97,-0.02 -0.97,1.48 0,1.5l0,0l0.02,0.01z" class="cls-1"/>
   <path id="svg_19" stroke-width="0px" fill="#e8ca6f" d="m360.97516,7.98645c1.78,-0.41 3.31,-2.2 4.84,-3.12c2.44,-1.48 5.85,-1.95 8.65,-2c3.14,-0.06 5.79,0.94 8.62,2.19c2.52,1.11 5.11,2.26 7.93,2.12c0.97,-0.05 0.96,-1.43 0,-1.5c-2.74,-0.19 -5.11,1.02 -7.27,2.59c-2.05,1.49 -4.1,3.51 -6.68,3.98c-3.07,0.56 -5.44,-1.59 -7.74,-3.26c-2.1,-1.52 -4.96,-3.55 -7.68,-2.44c-0.88,0.36 -0.5,1.81 0.4,1.45c2.81,-1.15 5.98,1.9 8.07,3.42s4.39,2.76 7.1,2.32c5.23,-0.86 8.17,-6.96 13.8,-6.56l0,-1.5c-3.1,0.16 -5.92,-1.39 -8.68,-2.58s-5.34,-1.83 -8.29,-1.72c-2.77,0.11 -5.89,0.62 -8.39,1.86c-0.95,0.48 -1.81,1.15 -2.67,1.78c-0.7,0.51 -1.53,1.33 -2.39,1.53c-0.94,0.22 -0.54,1.67 0.4,1.45l0,0l-0.02,-0.01z" class="cls-1"/>
   <path id="svg_20" stroke-width="0px" fill="#e8ca6f" d="m361.84516,6.51645l-0.08,0.02l-0.2,1.47c1.38,-0.11 2.74,-0.74 4.09,-1.04c0.88,-0.2 1.75,-0.35 2.64,-0.44c2.03,-0.2 4.07,-0.27 6.11,-0.28c2.31,-0.01 4.63,0.05 6.93,0.29c1.62,0.17 3.52,0.35 4.95,1.2c0.83,0.49 1.59,-0.8 0.76,-1.3c-1.45,-0.86 -3.25,-1.1 -4.89,-1.31c-2.37,-0.3 -4.76,-0.39 -7.14,-0.39c-2.17,0 -4.34,0.06 -6.5,0.26c-0.69,0.06 -1.38,0.14 -2.06,0.26c-0.85,0.15 -1.69,0.35 -2.52,0.58c-0.75,0.2 -1.58,0.6 -2.36,0.66s-1.09,1.34 -0.2,1.47c0.16,0.03 0.31,0.03 0.48,0.03c0.97,0.02 0.97,-1.48 0,-1.5l0,0l-0.01,0.02z" class="cls-1"/>
   <path id="svg_21" stroke-width="0px" fill="#e8ca6f" d="m296.96516,8.61645c6.13,1.32 12.1,3.47 17.36,6.95s9.62,8.33 12.73,13.92c0.47,0.84 1.77,0.09 1.3,-0.76c-3.17,-5.7 -7.55,-10.61 -12.98,-14.26c-5.42,-3.65 -11.65,-5.92 -18.01,-7.29c-0.94,-0.2 -1.34,1.24 -0.4,1.45l0,0l0,-0.01z" class="cls-1"/>
   <path id="svg_22" stroke-width="0px" fill="#e8ca6f" d="m326.73516,29.10645c-0.2,2.44 -0.58,4.91 -0.24,7.36s1.53,4.71 3.51,6.21c1.73,1.32 3.89,1.71 5.98,2.11s4.36,0.84 5.68,2.68c0.56,0.79 1.7,0.12 1.3,-0.76c-0.44,-0.96 -0.94,-1.91 -1.34,-2.89s-0.6,-1.99 -0.9,-2.99c-0.52,-1.74 -1.49,-3.32 -2.84,-4.54c-2.8,-2.54 -6.73,-3.53 -8.49,-7.14c-0.42,-0.87 -1.72,-0.11 -1.3,0.76c0.83,1.7 2.1,3 3.64,4.06s3.23,1.84 4.67,3.02c1.53,1.25 2.52,2.86 3.01,4.76c0.52,2.03 1.38,3.81 2.24,5.71l1.3,-0.76c-2.67,-3.73 -7.37,-2.74 -11.05,-4.61c-4.99,-2.53 -4.05,-8.41 -3.68,-13c0.08,-0.96 -1.42,-0.96 -1.5,0l0,0l0.01,0.02z" class="cls-1"/>
   <path id="svg_23" stroke-width="0px" fill="#e8ca6f" d="m326.94516,28.88645c-0.09,3.35 2.7,6.51 4.79,8.83c2.4,2.66 5.08,5.09 7.9,7.29c0.75,0.59 1.82,-0.47 1.06,-1.06c-2.66,-2.08 -5.19,-4.36 -7.48,-6.83c-1.24,-1.34 -2.43,-2.75 -3.39,-4.31c-0.72,-1.17 -1.42,-2.51 -1.38,-3.92c0.03,-0.97 -1.47,-0.97 -1.5,0l0,0z" class="cls-1"/>
   <path id="svg_24" stroke-width="0px" fill="#e8ca6f" d="m264.09516,23.33645c0.78,-1.19 2.55,-1.59 3.84,-1.88c1.75,-0.39 3.56,-0.55 5.35,-0.58s3.56,0.07 5.29,0.59c2.34,0.7 4.47,1.93 6.72,2.85c0.89,0.37 1.28,-1.08 0.4,-1.45c-2.47,-1.01 -4.81,-2.4 -7.42,-3.04c-1.88,-0.46 -3.83,-0.51 -5.75,-0.43s-3.88,0.29 -5.75,0.8c-1.5,0.41 -3.1,1.04 -3.98,2.38c-0.53,0.81 0.77,1.56 1.3,0.76l0,0z" class="cls-1"/>
   <path id="svg_25" stroke-width="0px" fill="#e8ca6f" d="m284.32516,24.01645c-0.2,3.83 2.31,7.17 5.95,8.28c3.91,1.19 8.71,-0.86 12.02,2.11c0.61,0.55 1.65,-0.16 1.18,-0.91c-0.74,-1.18 -0.82,-2.55 -1.15,-3.87c-0.3,-1.23 -0.88,-2.27 -1.76,-3.18c-1.5,-1.54 -3.47,-2.47 -5.48,-3.16c-1.78,-0.61 -3.62,-1.12 -5.49,-1.34c-1.58,-0.18 -3.51,-0.17 -4.53,1.26c-0.56,0.79 0.74,1.54 1.3,0.76c0.73,-1.03 2.97,-0.58 3.98,-0.4c1.58,0.28 3.13,0.74 4.64,1.27c1.81,0.64 3.64,1.56 4.88,3.06c1.5,1.81 1.09,4.39 2.32,6.35l1.18,-0.91c-1.42,-1.28 -3.09,-1.91 -4.98,-2.07s-3.82,0.1 -5.73,-0.06c-3.87,-0.32 -7.04,-3.16 -6.82,-7.2c0.05,-0.96 -1.45,-0.96 -1.5,0l0,0l-0.01,0.01z" class="cls-1"/>
   <path id="svg_26" stroke-width="0px" fill="#e8ca6f" d="m285.50516,25.18645c3.23,-0.31 5.29,2.39 7.91,3.71c1.09,0.55 2.24,0.93 3.38,1.35c1.49,0.56 2.88,1.27 4.18,2.19c0.79,0.56 1.54,-0.74 0.76,-1.3c-1.31,-0.93 -2.72,-1.65 -4.22,-2.22c-1.25,-0.48 -2.55,-0.87 -3.72,-1.53c-1.3,-0.72 -2.39,-1.77 -3.69,-2.51c-1.4,-0.79 -2.97,-1.36 -4.59,-1.2c-0.95,0.09 -0.96,1.59 0,1.5l0,0l-0.01,0.01z" class="cls-1"/>
  </g>
  <polygon stroke="#e8ca6f" id="svg_27" stroke-width="2px" stroke-linejoin="round" stroke-linecap="round" fill="none" points="231.15862053632736,21.225296020507812 223.25024956464767,27.792905807495117 215.37489861249924,21.184062957763672 215.4079491496086,8.007610321044922 223.3163201212883,1.440000057220459 231.19167107343674,8.054732322692871 231.15862053632736,21.225296020507812 " class="cls-2"/>
 </g>
</svg>