<?xml version="1.0" encoding="UTF-8"?>
<svg id="OBJECTS" xmlns="http://www.w3.org/2000/svg" viewBox="0 0 478.44 50.65">
  <defs>
    <style>
      .cls-1 {
        stroke-width: 0px;
      }
    </style>
  </defs>
  <g>
    <path class="cls-1" d="M7.62,19.33c-1.2,7.9,2.39,15.93,8.4,21.04,6.89,5.85,16.92,7.22,25.65,6.39,9.73-.92,18.99-4.6,27.57-9.1s16.66-10.21,25.37-14.68c17.59-9.02,37.27-15.27,57.17-15.51,4.96-.06,9.85.32,14.65,1.59s9.48,3.04,13.89,5.15c7.53,3.6,13.64,9.47,20.88,13.56,5.46,3.08,11.28,5.7,17.3,7.45,5.27,1.53,12.17,2.99,17.18-.1,1.03-.63,1.89-1.46,2.61-2.42.41-.54-.5-1.06-.91-.53-3.63,4.82-10.89,3.92-16.02,2.72-6.19-1.45-12.14-4.02-17.75-6.99-6.63-3.52-12.28-8.48-18.68-12.36-3.97-2.41-8.31-4.14-12.67-5.72-4.13-1.5-8.37-2.62-12.74-3.09-9.34-1.01-19.07.12-28.23,2s-18.48,4.91-27.26,8.67c-8.7,3.73-16.85,8.35-24.88,13.33s-16.92,9.85-26.26,12.69c-9.38,2.86-19.42,3.57-28.81.35-7.85-2.69-13.96-9.75-15.39-17.96-.36-2.05-.38-4.14-.07-6.19.1-.66-.91-.95-1.01-.28h0Z"/>
    <path class="cls-1" d="M8.42,19.67c3.93-1,5.95-6.46,5.56-10.12C13.42,4.45,7.96,2.52,4.28.09l-.53.91c1.1.71.67,1.59.27,2.59-.3.76-.51,1.54-.57,2.35-.12,1.63.71,2.88,1.77,4.04,2.04,2.23,5.83,6.14,1.88,8.5-.58.35-.05,1.26.53.91,1.56-.94,2.59-2.37,2.23-4.26s-1.69-3.46-2.91-4.83c-.7-.78-1.51-1.5-2.03-2.41s-.49-1.96-.23-2.99c.23-.9.77-1.74.84-2.68s-.47-1.63-1.25-2.14c-.57-.37-1.09.54-.53.91,3.29,2.17,8.39,3.89,9.15,8.33.31,1.82-.18,3.83-.93,5.48s-1.96,3.39-3.82,3.86c-.65.17-.38,1.18.28,1.01h0Z"/>
    <path class="cls-1" d="M3.28.71C.84,4.49-.93,8.63.53,13.15c1.2,3.69,4.13,5.66,7.61,6.98.63.24.91-.77.28-1.01-3.22-1.22-5.93-3.06-6.96-6.52C.22,8.43,1.96,4.69,4.19,1.24c.37-.57-.54-1.1-.91-.53h0Z"/>
    <path class="cls-1" d="M126.29,9.77c-3.67.06-7.33.26-11,.23s-7.36-.3-11.02-.67c-2.45-.24-4.91-.48-7.35-.85-1.04-.16-2.08-.34-3.09-.6-.69-.18-1.91-.39-2.33-1.04-.36-.57-1.27-.04-.91.53.9,1.42,3.42,1.67,4.9,1.94,2.25.4,4.54.62,6.82.87,3.99.43,7.99.78,12,.86s7.99-.15,11.98-.22c.68-.01.68-1.06,0-1.05h0Z"/>
    <path class="cls-1" d="M91.41,6.61c-.9-.2-1.77-1.04-2.5-1.57-.97-.71-1.95-1.48-3.03-2.02-2.64-1.31-5.95-1.84-8.87-1.94-3.1-.11-5.87.59-8.7,1.8-3.01,1.29-6.08,2.98-9.45,2.8v1.05c6.1-.44,9.21,6.13,14.86,7.04,2.87.46,5.24-.86,7.46-2.49s5.72-4.93,8.81-3.66c.62.26.9-.76.28-1.01-2.85-1.17-5.87,1.03-8.07,2.62-2.52,1.83-5.09,4.11-8.45,3.48-2.79-.52-5-2.66-7.21-4.28s-4.77-2.97-7.68-2.76c-.67.05-.68,1.01,0,1.05,2.87.15,5.53-.99,8.11-2.12,3.16-1.39,6.1-2.55,9.61-2.49,3.01.05,6.71.56,9.35,2.13,1.03.62,1.99,1.36,2.96,2.07.67.49,1.41,1.12,2.24,1.31.66.15.94-.86.28-1.01h0Z"/>
    <path class="cls-1" d="M90.14,7.64c.16,0,.29,0,.44-.03.62-.1.41-.99-.14-1.03-.87-.07-1.78-.5-2.62-.72s-1.73-.44-2.61-.6c-.74-.13-1.5-.22-2.25-.29-2.29-.21-4.6-.28-6.9-.28-2.53,0-5.08.09-7.59.41-1.74.22-3.66.46-5.2,1.38-.58.35-.05,1.25.53.91,1.59-.95,3.69-1.14,5.49-1.33,2.45-.25,4.91-.32,7.37-.31,2.17.01,4.35.08,6.51.3.89.09,1.76.22,2.64.41,1.53.33,3.08,1.06,4.63,1.18l-.14-1.03h-.16c-.67,0-.68,1.05,0,1.04h0Z"/>
    <path class="cls-1" d="M159.35,7.29c-6.8,1.46-13.44,3.89-19.23,7.78s-10.44,9.12-13.82,15.2c-.33.59.58,1.12.91.53,3.35-6.02,7.97-11.21,13.74-15.01,5.66-3.74,12.09-6.06,18.69-7.48.66-.14.38-1.15-.28-1.01h0Z"/>
    <path class="cls-1" d="M126.44,30.54c.21,2.57.65,5.22.26,7.8s-1.92,5.14-4.35,6.37c-3.86,1.96-8.95.93-11.74,4.84l.91.53c.92-2.01,1.83-3.9,2.38-6.06s1.63-3.86,3.3-5.23c1.56-1.28,3.4-2.15,5.06-3.28s2.94-2.48,3.81-4.26c.29-.61-.61-1.14-.91-.53-1.9,3.9-6.12,4.96-9.15,7.71-1.41,1.29-2.42,2.92-2.97,4.75-.32,1.07-.54,2.16-.96,3.21s-.98,2.11-1.46,3.16c-.28.62.51,1.08.91.53,1.44-2.01,3.84-2.55,6.14-2.98s4.57-.82,6.44-2.23c4.63-3.52,3.81-9.24,3.4-14.33-.05-.67-1.1-.67-1.05,0h0Z"/>
    <path class="cls-1" d="M126.22,30.31c.04,1.53-.69,2.98-1.47,4.26-1.05,1.72-2.36,3.28-3.73,4.76-2.46,2.66-5.17,5.1-8.02,7.33-.53.42.22,1.15.74.74,3.02-2.36,5.9-4.96,8.47-7.82,1.34-1.49,2.63-3.07,3.64-4.81.78-1.35,1.46-2.88,1.42-4.47-.02-.67-1.07-.68-1.05,0h0Z"/>
    <path class="cls-1" d="M196.09,23.68c-.88-1.34-2.49-1.97-3.97-2.39-2.01-.57-4.13-.79-6.22-.88-1.97-.08-3.97-.05-5.9.4-2.87.67-5.44,2.2-8.15,3.31-.62.25-.35,1.27.28,1.01,2.35-.96,4.59-2.25,7.03-3,1.94-.6,3.92-.74,5.93-.7,1.9.04,3.82.2,5.68.6,1.5.33,3.52.79,4.42,2.17.37.56,1.28.04.91-.53h0Z"/>
    <path class="cls-1" d="M171.92,25.08c.24,4.5-3.3,7.63-7.59,8-3.99.34-8.01-.74-11.28,2.2l.82.64c1.3-2.07.88-4.76,2.4-6.7,1.36-1.74,3.44-2.8,5.48-3.52,1.58-.56,3.21-1.04,4.86-1.34,1.26-.23,3.79-.73,4.69.54.39.55,1.3.02.91-.53-1.02-1.44-3.04-1.39-4.61-1.21-1.98.23-3.93.78-5.82,1.42-2.11.72-4.17,1.7-5.75,3.32-.87.89-1.47,1.93-1.79,3.14-.39,1.48-.46,3.02-1.29,4.35-.33.52.39,1.02.82.64,3.62-3.26,8.74-1.05,13.01-2.34,3.79-1.14,6.38-4.63,6.17-8.61-.04-.67-1.09-.68-1.05,0h0Z"/>
    <path class="cls-1" d="M171.99,25.01c-1.65-.16-3.23.39-4.66,1.18s-2.64,1.96-4.08,2.76c-1.25.69-2.62,1.11-3.95,1.62-1.63.62-3.16,1.39-4.58,2.4-.55.39-.02,1.3.53.91,1.38-.98,2.86-1.74,4.44-2.34,1.23-.46,2.49-.87,3.67-1.46,2.86-1.45,5.1-4.35,8.62-4.02.67.06.67-.99,0-1.05h0Z"/>
  </g>
  <g>
    <path class="cls-1" d="M469.8,19.93c1.26,8.3-3.2,16.8-10.01,21.45-3.73,2.55-8.27,3.81-12.7,4.45-4.85.7-9.82.48-14.64-.4-9.71-1.77-18.8-6-27.31-10.87-4.03-2.31-7.9-4.87-11.89-7.24-4.02-2.39-8.15-4.61-12.36-6.65-17.03-8.22-35.85-13.83-54.87-13.94-4.56-.03-9.09.34-13.53,1.43s-8.91,2.86-13.19,4.68c-7.87,3.35-14.09,9.32-21.38,13.63-5.12,3.03-10.61,5.57-16.26,7.43-5.3,1.75-12.39,3.71-17.72,1.01-1.14-.58-2.14-1.39-2.91-2.42-.4-.53-1.31-.01-.91.53,3.48,4.61,9.76,4.58,14.93,3.67,6.49-1.14,12.75-3.75,18.6-6.71,2.23-1.13,4.44-2.33,6.54-3.69,4.01-2.58,7.73-5.57,11.7-8.2,4.24-2.81,8.8-4.81,13.55-6.59,4.48-1.68,9.09-2.98,13.86-3.46,9.76-.97,19.9.3,29.43,2.41s19.35,5.49,28.48,9.65c4.48,2.04,8.86,4.29,13.13,6.74s8.22,5.08,12.38,7.53c8.46,4.99,17.47,9.42,27.11,11.59,9,2.03,19.24,2.07,27.7-2.07,7.07-3.45,12.35-10.69,13.35-18.5.25-1.92.2-3.83-.09-5.74-.1-.67-1.11-.38-1.01.28h0Z"/>
    <path class="cls-1" d="M470.29,18.98c-1.82-.46-3.02-2.14-3.77-3.76s-1.29-3.73-.98-5.58c.75-4.44,5.86-6.16,9.14-8.33.56-.37.04-1.27-.53-.91-.78.5-1.33,1.16-1.25,2.14.07.89.57,1.69.81,2.54.29,1.06.37,2.15-.2,3.13-.53.91-1.34,1.63-2.03,2.41-1.21,1.35-2.51,2.91-2.89,4.73-.4,1.92.6,3.39,2.21,4.36.58.35,1.11-.56.53-.91-3.94-2.36-.16-6.27,1.88-8.5,1.03-1.12,1.86-2.34,1.78-3.93-.04-.85-.27-1.68-.58-2.47-.39-1-.83-1.88.27-2.59l-.53-.91c-3.69,2.44-9.15,4.37-9.7,9.46-.4,3.66,1.63,9.12,5.56,10.12.66.17.93-.85.28-1.01h0Z"/>
    <path class="cls-1" d="M474.25,1.56c2.23,3.45,3.97,7.19,2.73,11.36-1.03,3.46-3.74,5.3-6.96,6.52-.63.24-.35,1.25.28,1.01,3.48-1.32,6.4-3.29,7.61-6.98,1.48-4.51-.31-8.66-2.75-12.44-.37-.57-1.27-.04-.91.53h0Z"/>
    <path class="cls-1" d="M352.15,11.14c3.99.06,7.98.29,11.98.22s8.01-.43,12-.86c2.28-.24,4.56-.47,6.82-.87,1.48-.26,4.01-.52,4.9-1.94.36-.57-.55-1.1-.91-.53-.4.63-1.54.83-2.2,1.01-1.06.28-2.14.47-3.22.63-2.44.37-4.9.6-7.35.85-3.66.36-7.34.64-11.02.67s-7.34-.17-11-.23c-.68-.01-.68,1.04,0,1.05h0Z"/>
    <path class="cls-1" d="M387.3,7.94c.83-.19,1.57-.82,2.25-1.31.94-.68,1.85-1.39,2.84-1.99,2.66-1.63,6.41-2.15,9.47-2.2,3.44-.06,6.33,1.04,9.42,2.41,2.63,1.16,5.36,2.36,8.29,2.2.68-.04.67-1,0-1.05-2.9-.21-5.4,1.09-7.68,2.76s-4.42,3.76-7.21,4.28c-3.36.63-5.93-1.65-8.45-3.48-2.2-1.59-5.22-3.8-8.07-2.62-.62.25-.35,1.27.28,1.01,3.09-1.27,6.52,1.98,8.81,3.66s4.6,2.95,7.46,2.49c5.65-.91,8.76-7.48,14.86-7.04v-1.05c-3.37.18-6.44-1.51-9.45-2.8-2.83-1.22-5.6-1.92-8.7-1.8-2.92.11-6.22.64-8.87,1.94-1.08.54-2.06,1.31-3.03,2.02-.73.53-1.6,1.37-2.5,1.57-.66.15-.38,1.16.28,1.01h0Z"/>
    <path class="cls-1" d="M388.3,6.91h-.16c-.05.35-.09.7-.14,1.04,1.48-.11,2.96-.81,4.42-1.13.95-.21,1.89-.36,2.85-.46,2.16-.21,4.34-.28,6.51-.3,2.46-.01,4.93.06,7.37.31,1.8.19,3.91.38,5.49,1.33.58.35,1.11-.56.53-.91-1.53-.92-3.46-1.16-5.2-1.38-2.51-.31-5.06-.4-7.59-.41-2.3,0-4.61.06-6.9.28-.75.07-1.5.16-2.25.29-.88.16-1.75.37-2.61.6s-1.75.65-2.62.72c-.55.04-.76.94-.14,1.03.15.02.28.02.44.03.68.01.68-1.04,0-1.05h0Z"/>
    <path class="cls-1" d="M318.81,8.62c6.6,1.42,13.03,3.74,18.69,7.48,5.76,3.81,10.39,8.99,13.74,15.01.33.59,1.24.06.91-.53-3.38-6.08-8.04-11.31-13.82-15.2s-12.44-6.32-19.23-7.78c-.66-.14-.94.87-.28,1.01h0Z"/>
    <path class="cls-1" d="M350.94,30.86c-.41,5.08-1.23,10.81,3.4,14.33,1.83,1.39,4.12,1.79,6.31,2.21,2.33.44,4.79.96,6.26,3.01.4.55,1.19.09.91-.53-.48-1.06-1.02-2.09-1.46-3.16s-.64-2.13-.96-3.21c-.55-1.83-1.56-3.46-2.97-4.75-3.03-2.75-7.25-3.8-9.14-7.71-.3-.61-1.2-.08-.91.53.87,1.78,2.19,3.15,3.81,4.26s3.5,2,5.06,3.28c1.67,1.37,2.76,3.14,3.3,5.23s1.46,4.04,2.38,6.06l.91-.53c-2.8-3.91-7.88-2.88-11.74-4.84-2.39-1.21-3.91-3.64-4.33-6.24s.03-5.32.24-7.94c.05-.67-1-.67-1.05,0h0Z"/>
    <path class="cls-1" d="M351.17,30.63c-.04,1.59.64,3.12,1.42,4.47,1.01,1.74,2.3,3.32,3.64,4.81,2.57,2.85,5.45,5.45,8.47,7.81.53.41,1.27-.33.74-.74-2.85-2.23-5.57-4.67-8.02-7.33-1.35-1.45-2.63-2.99-3.68-4.68-.8-1.3-1.56-2.78-1.52-4.34.02-.68-1.03-.68-1.05,0h0Z"/>
    <path class="cls-1" d="M283.25,24.53c.88-1.34,2.82-1.82,4.28-2.14,1.9-.42,3.87-.59,5.82-.63s3.87.08,5.75.64c2.51.75,4.8,2.07,7.21,3.06.62.26.9-.76.28-1.01-2.65-1.09-5.16-2.57-7.96-3.26-1.99-.49-4.05-.54-6.09-.45s-4.11.31-6.09.84c-1.53.42-3.2,1.05-4.1,2.43-.37.57.54,1.09.91.53h0Z"/>
    <path class="cls-1" d="M305.46,25.4c-.21,3.98,2.39,7.46,6.17,8.61,4.27,1.3,9.38-.93,13.01,2.34.43.38,1.16-.11.82-.64-.81-1.29-.9-2.77-1.26-4.21-.31-1.27-.91-2.35-1.82-3.29-1.57-1.62-3.64-2.59-5.75-3.32-1.89-.65-3.83-1.19-5.82-1.42-1.58-.18-3.59-.23-4.61,1.21-.39.55.52,1.08.91.53.89-1.25,3.34-.78,4.58-.56,1.69.3,3.35.79,4.97,1.36,1.99.7,3.98,1.71,5.35,3.36,1.65,1.97,1.2,4.74,2.53,6.87l.82-.64c-3.27-2.94-7.3-1.87-11.28-2.2-4.29-.35-7.83-3.51-7.59-8,.04-.68-1.01-.67-1.05,0h0Z"/>
    <path class="cls-1" d="M306.44,26.38c3.53-.34,5.76,2.57,8.62,4.02,1.14.58,2.36.97,3.56,1.42,1.62.61,3.14,1.38,4.55,2.38.55.39,1.08-.52.53-.91-1.39-.98-2.88-1.75-4.46-2.36-1.37-.53-2.78-.95-4.06-1.66-1.4-.78-2.56-1.9-3.96-2.69s-3.09-1.41-4.78-1.25c-.67.06-.67,1.11,0,1.05h0Z"/>
  </g>
</svg>