<?xml version="1.0" standalone="no"?>
<!DOCTYPE svg PUBLIC "-//W3C//DTD SVG 20010904//EN"
 "http://www.w3.org/TR/2001/REC-SVG-20010904/DTD/svg10.dtd">
<svg version="1.0" xmlns="http://www.w3.org/2000/svg"
 width="1117.000000pt" height="223.000000pt" viewBox="0 0 1117.000000 223.000000"
 preserveAspectRatio="xMidYMid meet">

<g transform="translate(0.000000,223.000000) scale(0.100000,-0.100000)"
fill="#000000" stroke="none">
<path d="M359 2063 c-19 -46 -22 -249 -7 -329 l14 -72 -27 -37 c-45 -60 -115
-203 -142 -291 -14 -45 -31 -128 -37 -185 -30 -283 66 -487 275 -585 237 -110
509 -74 739 98 39 30 90 80 115 115 l45 63 12 -57 c21 -104 98 -134 183 -72
40 30 141 152 141 170 0 5 4 9 9 9 4 0 4 -22 -1 -50 -11 -61 4 -123 35 -145
39 -27 92 -19 137 21 42 38 49 36 25 -6 -8 -14 -14 -28 -15 -31 0 -6 97 5 104
12 2 2 27 45 56 94 28 50 76 123 106 162 70 91 186 193 220 193 15 0 -6 -70
-51 -169 -25 -57 -54 -133 -63 -168 -15 -57 -15 -66 -2 -91 24 -41 45 -39 58
5 26 89 202 317 296 385 47 34 86 37 86 8 0 -11 -23 -59 -50 -107 -84 -146
-101 -237 -54 -292 53 -64 140 -46 224 46 27 30 50 59 50 64 0 5 4 9 8 9 5 0
9 -14 10 -31 3 -96 87 -148 171 -105 35 19 102 91 132 144 13 23 26 42 29 42
3 0 5 -32 5 -71 0 -67 2 -72 33 -100 27 -24 41 -29 82 -29 90 0 151 39 219
142 l41 60 0 -70 c0 -93 22 -122 98 -130 77 -7 130 17 196 89 l55 59 7 -37
c14 -81 45 -113 107 -113 56 0 115 51 213 186 l21 28 -5 -62 c-2 -33 -2 -73 2
-86 10 -40 45 -66 88 -66 66 0 155 99 242 266 38 75 41 84 27 84 -5 0 -28 -35
-51 -79 -54 -101 -134 -209 -165 -223 -45 -21 -58 -5 -53 65 6 73 49 182 112
285 l44 71 -34 7 c-75 14 -77 11 -195 -190 -75 -129 -154 -220 -206 -237 -34
-11 -38 -10 -56 12 -39 48 -2 161 105 316 62 89 144 168 203 194 39 17 51 19
81 9 20 -7 40 -22 46 -36 17 -37 46 -25 34 14 -15 45 -114 76 -191 60 -143
-30 -243 -124 -341 -323 -72 -146 -120 -217 -167 -245 -85 -52 -148 5 -133
120 12 93 42 158 103 223 110 119 195 248 281 425 63 129 79 196 58 246 -13
31 -19 36 -49 36 -49 0 -110 -48 -161 -128 -82 -126 -176 -330 -242 -524 -55
-162 -143 -317 -215 -383 -33 -30 -47 -36 -76 -33 -77 7 -96 92 -53 233 19 60
33 81 94 146 167 177 347 514 333 622 -3 21 -11 44 -17 52 -34 41 -126 -5
-188 -94 -76 -108 -190 -352 -258 -555 -58 -172 -173 -359 -241 -391 -33 -16
-40 -16 -63 -3 -44 25 -33 77 64 303 48 110 85 209 84 220 -3 17 -12 20 -65
23 l-61 3 5 -38 c4 -28 -3 -59 -26 -116 -106 -267 -245 -447 -306 -397 -39 32
-4 148 115 377 44 86 80 158 80 160 0 10 -70 -12 -125 -40 -93 -46 -142 -83
-244 -181 l-93 -91 66 127 c36 70 66 134 66 142 0 8 -10 22 -22 30 -26 18 -58
12 -108 -19 -48 -31 -231 -197 -265 -240 -15 -20 -29 -34 -32 -31 -8 8 115
220 154 265 l33 39 -36 7 c-43 8 -82 -7 -106 -39 -9 -12 -53 -92 -99 -177 -92
-172 -141 -249 -190 -297 -37 -36 -74 -42 -84 -13 -17 53 59 257 138 373 l26
37 -46 7 c-61 9 -84 -10 -146 -121 -97 -177 -174 -275 -234 -301 -18 -8 -37
-14 -42 -14 -22 0 -41 33 -41 73 1 127 195 400 325 458 39 17 51 19 81 9 20
-7 40 -22 46 -36 13 -28 26 -31 35 -9 6 17 -20 50 -52 68 -57 30 -168 22 -247
-19 -88 -46 -196 -184 -243 -310 -31 -84 -111 -194 -180 -247 -62 -47 -171
-100 -250 -122 -91 -25 -284 -31 -368 -11 -153 36 -243 116 -282 251 -20 68
-23 243 -5 331 26 132 109 364 130 364 4 0 22 -22 39 -49 99 -154 263 -236
491 -248 289 -14 521 127 591 359 39 128 7 251 -90 341 -98 92 -195 121 -396
121 -132 0 -145 -2 -238 -33 -122 -42 -252 -126 -334 -216 -33 -36 -63 -65
-65 -65 -13 0 -30 197 -24 275 7 88 -4 113 -25 58z m832 -87 c81 -17 136 -45
190 -93 66 -60 84 -103 84 -208 0 -82 -3 -97 -32 -156 -40 -80 -130 -170 -207
-205 -161 -74 -389 -69 -554 12 -70 34 -159 123 -196 197 l-29 57 28 43 c16
23 60 75 99 116 192 199 406 281 617 237z m2497 -316 c-10 -99 -181 -403 -298
-530 -48 -53 -50 -54 -37 -20 122 308 279 600 324 600 13 0 15 -9 11 -50z
m382 20 c0 -91 -180 -416 -310 -560 -34 -37 -40 -41 -34 -20 11 41 122 287
185 410 85 168 159 247 159 170z"/>
<path d="M8572 2043 c-27 -27 -56 -59 -65 -72 -13 -19 -33 -26 -114 -41 -269
-48 -526 -150 -667 -263 -250 -200 -297 -495 -95 -598 125 -63 322 25 390 174
25 56 26 147 1 177 -27 33 -44 18 -25 -21 41 -83 -34 -235 -142 -285 -73 -35
-135 -32 -179 6 -47 41 -60 86 -53 178 7 97 48 181 130 269 109 117 258 204
478 279 93 31 216 61 223 53 2 -2 -23 -49 -55 -104 -70 -120 -176 -331 -254
-510 -294 -670 -575 -1019 -930 -1156 -121 -47 -221 -62 -330 -49 -168 20
-277 65 -364 151 -104 103 -120 264 -41 418 28 56 111 145 169 183 40 25 42
28 20 28 -28 0 -95 -40 -151 -89 -114 -100 -172 -322 -123 -470 21 -64 103
-156 172 -193 62 -34 199 -74 283 -82 87 -9 274 8 368 35 95 26 270 110 377
180 274 182 476 509 678 1104 74 219 117 326 187 465 42 83 55 101 77 106 135
29 193 68 193 126 0 35 -18 48 -67 48 -38 0 -49 -6 -91 -47z m95 -19 c3 -8 -1
-22 -9 -30 -18 -18 -108 -47 -108 -35 0 14 79 81 95 81 9 0 18 -7 22 -16z"/>
<path d="M5879 1909 c-175 -25 -329 -119 -400 -244 -25 -43 -29 -61 -29 -125
0 -53 6 -88 20 -119 11 -24 19 -45 18 -46 -2 -1 -39 -9 -83 -18 -241 -50 -410
-215 -423 -412 -4 -69 -2 -80 27 -140 71 -143 225 -214 441 -201 158 9 268 55
371 156 77 75 109 131 116 204 5 53 -9 98 -44 138 -13 15 -10 17 44 23 132 15
237 59 296 124 31 35 37 48 37 87 0 47 -13 84 -31 84 -6 0 -6 -7 1 -19 38 -71
-24 -140 -176 -194 -66 -24 -85 -26 -320 -30 -269 -6 -312 -13 -391 -63 -46
-30 -83 -87 -83 -128 0 -64 66 -155 147 -203 51 -29 73 -21 28 11 -16 11 -47
37 -67 57 -33 32 -38 43 -38 81 0 64 31 106 105 143 56 28 68 30 170 30 93 0
116 -3 150 -21 65 -35 80 -58 80 -123 0 -71 -23 -117 -96 -196 -97 -103 -213
-151 -348 -143 -175 11 -259 117 -249 317 3 74 9 97 42 165 61 125 154 207
267 236 42 11 47 9 104 -24 65 -39 112 -47 182 -31 32 8 40 43 14 69 -18 18
-37 22 -119 26 l-97 5 -9 42 c-26 123 109 307 291 394 72 35 96 42 166 46 70
4 87 1 114 -16 18 -11 35 -32 39 -46 8 -30 -1 -44 -18 -27 -7 7 -28 12 -48 12
-46 0 -74 -28 -74 -75 0 -49 27 -75 80 -75 35 0 47 5 68 30 54 64 43 162 -22
204 -35 23 -131 47 -176 45 -12 -1 -46 -5 -77 -10z m-169 -555 c35 -8 51 -31
29 -45 -37 -23 -156 4 -167 39 -4 13 80 17 138 6z"/>
<path d="M10855 1756 c-59 -26 -117 -116 -300 -466 -272 -522 -343 -617 -422
-564 -22 14 -25 22 -21 58 3 22 44 132 92 243 47 111 86 208 86 216 0 20 -22
27 -80 27 l-49 0 6 -35 c4 -26 -5 -61 -42 -152 -101 -255 -242 -426 -292 -357
-29 40 9 153 127 382 52 101 74 152 65 152 -73 0 -272 -126 -374 -237 -39 -42
-71 -72 -71 -67 0 20 131 239 161 270 l30 31 -40 7 c-79 12 -93 -3 -226 -259
-83 -158 -143 -246 -189 -274 -44 -27 -64 -26 -78 4 -18 41 16 141 117 343 56
110 87 182 79 182 -7 0 -39 -9 -70 -21 -89 -33 -225 -131 -309 -222 l-77 -82
26 52 c46 92 117 207 147 239 l30 31 -40 7 c-78 12 -95 -5 -212 -229 -79 -151
-118 -214 -170 -270 -45 -49 -83 -59 -94 -25 -16 51 37 207 114 335 23 37 39
70 37 72 -2 3 -23 7 -45 10 -36 5 -44 2 -73 -29 -18 -19 -55 -76 -83 -127 -61
-112 -132 -210 -177 -244 -75 -57 -118 -41 -118 43 0 95 145 327 257 411 88
67 146 71 191 14 12 -15 26 -24 32 -20 32 20 -18 72 -88 90 -126 33 -275 -46
-378 -203 -102 -153 -124 -332 -47 -392 68 -54 160 -1 266 154 l28 41 -7 -66
c-5 -50 -3 -73 10 -97 36 -69 107 -71 179 -3 l29 26 -18 -37 c-10 -21 -16 -40
-13 -42 2 -2 25 -2 52 1 47 6 48 7 84 72 113 203 271 381 339 381 39 0 39 -25
0 -88 -119 -196 -131 -313 -38 -358 42 -20 82 -13 136 22 28 19 37 22 33 10
-4 -9 -10 -23 -14 -33 -5 -13 -2 -15 18 -10 13 4 36 7 51 7 23 0 33 10 64 68
85 152 166 258 257 333 59 50 102 63 113 34 4 -8 -12 -45 -34 -83 -77 -127
-99 -193 -93 -278 2 -30 48 -72 87 -80 51 -9 118 28 168 92 l41 54 10 -39 c6
-22 19 -53 31 -68 19 -25 28 -28 77 -28 47 0 61 5 94 31 52 42 102 110 157
215 26 49 50 89 52 89 3 0 3 -3 1 -7 -17 -30 -83 -179 -103 -231 -37 -96 -35
-102 34 -102 l57 0 2 49 c3 63 28 162 55 215 29 57 183 208 240 235 30 14 61
21 85 19 36 -3 38 -5 41 -40 3 -31 -3 -42 -34 -73 -41 -41 -89 -65 -131 -65
-67 0 -108 -75 -101 -183 6 -105 68 -167 164 -167 101 0 189 76 268 230 50 98
62 130 47 130 -6 0 -27 -33 -47 -72 -79 -157 -142 -226 -215 -235 -75 -10
-128 60 -129 167 0 80 14 100 80 117 167 42 291 235 175 273 -80 26 -209 -40
-338 -174 l-79 -81 22 55 c59 151 256 483 363 611 42 51 53 69 40 69 -10 0
-27 2 -38 5 -11 3 -34 -1 -50 -9z"/>
<path d="M3115 1482 c-52 -11 -86 -87 -53 -120 21 -21 77 -14 103 13 50 49 16
121 -50 107z"/>
<path d="M10274 1474 c-36 -19 -44 -31 -44 -69 0 -40 16 -55 57 -55 57 0 102
64 75 107 -15 24 -58 32 -88 17z"/>
</g>
</svg>
